<svg xmlns="http://www.w3.org/2000/svg" width="3735" height="1194" viewBox="-20 -20 3775 1234">
<defs><marker id="arr" markerWidth="13" markerHeight="13" refX="10" refY="6.5" orient="auto"><path d="M0 0 L13 6.5 L0 13 z" fill="#79706E"/></marker><marker id="arru" markerWidth="13" markerHeight="13" refX="10" refY="6.5" orient="auto"><path d="M0 0 L13 6.5 L0 13 z" fill="#E8A33D"/></marker></defs>
<rect x="-30" y="-30" width="3815" height="1274" fill="#ffffff"/>
<text x="3525" y="-8" font-size="15" fill="#999999" font-family="JetBrains Mono, Menlo, monospace" text-anchor="end">condensed semantic view · edges subset-checked</text>
<path d="M 70 86 L 280 86 L 547 86 L 800 86 L 1110 86 L 1300 86 L 1538 86 L 1762 86 L 1952 86 L 2142 86 L 2332 86 L 2686 86 L 3097 86 L 3307 86" fill="none" stroke="#79706E" stroke-width="7" marker-mid="url(#arr)"/>
<circle cx="860" cy="86" r="7" fill="#79706E"/>
<circle cx="860" cy="86" r="7" fill="#79706E"/>
<circle cx="860" cy="86" r="7" fill="#79706E"/>
<circle cx="860" cy="86" r="7" fill="#79706E"/>
<circle cx="860" cy="86" r="7" fill="#79706E"/>
<circle cx="860" cy="86" r="7" fill="#79706E"/>
<circle cx="860" cy="86" r="7" fill="#79706E"/>
<path d="M 70 86 L 70 264 Q 140 264 140 292" fill="none" stroke="#E8A33D" stroke-width="5" marker-end="url(#arru)"/>
<path d="M 70 86 L 70 264 Q 140 264 140 292" fill="none" stroke="#E8A33D" stroke-width="5" marker-end="url(#arru)"/>
<path d="M 70 86 L 70 340 Q 312 340 312 368" fill="none" stroke="#E8A33D" stroke-width="5" marker-end="url(#arru)"/>
<path d="M 70 86 L 70 416 Q 140 416 140 444" fill="none" stroke="#E8A33D" stroke-width="5" marker-end="url(#arru)"/>
<path d="M 70 86 L 70 492 Q 226 492 226 520" fill="none" stroke="#E8A33D" stroke-width="5" marker-end="url(#arru)"/>
<path d="M 70 86 L 70 568 Q 312 568 312 596" fill="none" stroke="#E8A33D" stroke-width="5" marker-end="url(#arru)"/>
<path d="M 70 86 L 70 796 Q 140 796 140 824" fill="none" stroke="#E8A33D" stroke-width="5" marker-end="url(#arru)"/>
<path d="M 1952 86 L 1952 126 Q 1952 148 2142 148 L 2142 126 L 2142 86" fill="none" stroke="#E8A33D" stroke-width="5" marker-end="url(#arru)"/>
<path d="M 312 596 Q 312 112 70 112 L 70 86" fill="none" stroke="#E8A33D" stroke-width="5" marker-end="url(#arru)"/>
<path d="M 140 292 Q 140 112 70 112 L 70 86" fill="none" stroke="#E8A33D" stroke-width="5" marker-end="url(#arru)"/>
<path d="M 140 824 Q 140 112 547 112 L 547 86" fill="none" stroke="#E8A33D" stroke-width="5" marker-end="url(#arru)"/>
<path d="M 3625 1012 Q 3625 112 800 112 L 800 86" fill="none" stroke="#E8A33D" stroke-width="5" marker-end="url(#arru)"/>
<path d="M 3625 1012 Q 3625 112 280 112 L 280 86" fill="none" stroke="#E8A33D" stroke-width="5" marker-end="url(#arru)"/>
<path d="M 140 292 Q 140 112 547 112 L 547 86" fill="none" stroke="#E8A33D" stroke-width="5" marker-end="url(#arru)"/>
<circle cx="70" cy="86" r="8" fill="#ffffff" stroke="#79706E" stroke-width="3"/>
<text x="70" y="60" font-size="20" fill="#333333" font-family="JetBrains Mono, Menlo, monospace">star_align</text>
<circle cx="280" cy="86" r="8" fill="#ffffff" stroke="#79706E" stroke-width="3"/>
<text x="280" y="60" font-size="20" fill="#333333" font-family="JetBrains Mono, Menlo, monospace">star_align_raw</text>
<circle cx="547" cy="86" r="8" fill="#ffffff" stroke="#79706E" stroke-width="3"/>
<text x="547" y="60" font-size="20" fill="#333333" font-family="JetBrains Mono, Menlo, monospace">star_align_se</text>
<circle cx="800" cy="86" r="8" fill="#ffffff" stroke="#79706E" stroke-width="3"/>
<text x="800" y="60" font-size="20" fill="#333333" font-family="JetBrains Mono, Menlo, monospace">star_align_se_raw</text>
<circle cx="1300" cy="86" r="8" fill="#ffffff" stroke="#79706E" stroke-width="3"/>
<text x="1300" y="60" font-size="20" fill="#333333" font-family="JetBrains Mono, Menlo, monospace">count_matrix</text>
<circle cx="1538" cy="86" r="8" fill="#ffffff" stroke="#79706E" stroke-width="3"/>
<text x="1538" y="60" font-size="20" fill="#333333" font-family="JetBrains Mono, Menlo, monospace">deseq2_init</text>
<circle cx="1762" cy="86" r="8" fill="#ffffff" stroke="#79706E" stroke-width="3"/>
<text x="1762" y="60" font-size="20" fill="#333333" font-family="JetBrains Mono, Menlo, monospace">deseq2</text>
<circle cx="1952" cy="86" r="8" fill="#ffffff" stroke="#79706E" stroke-width="3"/>
<text x="1952" y="60" font-size="20" fill="#333333" font-family="JetBrains Mono, Menlo, monospace">rseqc_QC</text>
<circle cx="2142" cy="86" r="8" fill="#ffffff" stroke="#79706E" stroke-width="3"/>
<text x="2142" y="60" font-size="20" fill="#333333" font-family="JetBrains Mono, Menlo, monospace">multiqc</text>
<circle cx="2332" cy="86" r="8" fill="#ffffff" stroke="#79706E" stroke-width="3"/>
<text x="2332" y="60" font-size="20" fill="#333333" font-family="JetBrains Mono, Menlo, monospace">gene_2_symbol_counts</text>
<circle cx="2686" cy="86" r="8" fill="#ffffff" stroke="#79706E" stroke-width="3"/>
<text x="2686" y="60" font-size="20" fill="#333333" font-family="JetBrains Mono, Menlo, monospace">gene_2_symbol_normcounts</text>
<circle cx="3097" cy="86" r="8" fill="#ffffff" stroke="#79706E" stroke-width="3"/>
<text x="3097" y="60" font-size="20" fill="#333333" font-family="JetBrains Mono, Menlo, monospace">DESeq2_PCA</text>
<circle cx="3307" cy="86" r="8" fill="#ffffff" stroke="#79706E" stroke-width="3"/>
<text x="3307" y="60" font-size="20" fill="#333333" font-family="JetBrains Mono, Menlo, monospace">gene_2_symbol_diffexp</text>
<circle cx="140" cy="292" r="8" fill="#ffffff" stroke="#E8A33D" stroke-width="3"/>
<text x="158" y="299" font-size="20" fill="#333333" font-family="JetBrains Mono, Menlo, monospace">star_index</text>
<circle cx="140" cy="292" r="8" fill="#ffffff" stroke="#E8A33D" stroke-width="3"/>
<text x="158" y="299" font-size="20" fill="#333333" font-family="JetBrains Mono, Menlo, monospace">star_index</text>
<circle cx="312" cy="368" r="8" fill="#ffffff" stroke="#E8A33D" stroke-width="3"/>
<text x="330" y="375" font-size="20" fill="#333333" font-family="JetBrains Mono, Menlo, monospace">bwa_index</text>
<circle cx="140" cy="444" r="8" fill="#ffffff" stroke="#E8A33D" stroke-width="3"/>
<text x="158" y="451" font-size="20" fill="#333333" font-family="JetBrains Mono, Menlo, monospace">genome_faidx</text>
<circle cx="226" cy="520" r="8" fill="#ffffff" stroke="#E8A33D" stroke-width="3"/>
<text x="244" y="527" font-size="20" fill="#333333" font-family="JetBrains Mono, Menlo, monospace">rseqc_gtf2bed</text>
<circle cx="312" cy="596" r="8" fill="#ffffff" stroke="#E8A33D" stroke-width="3"/>
<text x="330" y="603" font-size="20" fill="#333333" font-family="JetBrains Mono, Menlo, monospace">fastp_pe</text>
<circle cx="140" cy="824" r="8" fill="#ffffff" stroke="#E8A33D" stroke-width="3"/>
<text x="158" y="831" font-size="20" fill="#333333" font-family="JetBrains Mono, Menlo, monospace">fastp_se</text>
<rect x="40" y="1076" width="332" height="112" rx="10" fill="#f8f8f8" stroke="#dddddd"/>
<path d="M 54 1106 L 122 1106" stroke="#79706E" stroke-width="7"/>
<text x="136" y="1113" font-size="20" fill="#333333" font-family="JetBrains Mono, Menlo, monospace">Main pipeline</text>
<path d="M 54 1150 L 122 1150" stroke="#E8A33D" stroke-width="5"/>
<text x="136" y="1157" font-size="20" fill="#333333" font-family="JetBrains Mono, Menlo, monospace">Assist routes</text>
</svg>