<?xml version="1.0" encoding="UTF-8" standalone="no"?>
<!DOCTYPE svg PUBLIC "-//W3C//DTD SVG 1.1//EN"
 "http://www.w3.org/Graphics/SVG/1.1/DTD/svg11.dtd">
<!-- Generated by graphviz version 13.1.2 (0)
 -->
<!-- Pages: 1 -->
<svg width="1686pt" height="437pt"
 viewBox="0.00 0.00 1686.00 437.00" xmlns="http://www.w3.org/2000/svg" xmlns:xlink="http://www.w3.org/1999/xlink">
<g id="graph0" class="graph" transform="scale(1 1) rotate(0) translate(4 433)">
<!-- 0 -->
<g id="node1" class="node">
<title>0</title>
<ellipse fill="none" stroke="black" cx="82.57" cy="-18" rx="82.57" ry="18"/>
<text xml:space="preserve" text-anchor="middle" x="82.57" y="-12.95" font-family="Times,serif" font-size="14.00">samplesheet_check</text>
</g>
<!-- 1 -->
<g id="node2" class="node">
<title>1</title>
<ellipse fill="none" stroke="black" cx="82.57" cy="-72" rx="27" ry="18"/>
<text xml:space="preserve" text-anchor="middle" x="82.57" y="-66.95" font-family="Times,serif" font-size="14.00">qcat</text>
</g>
<!-- 2 -->
<g id="node3" class="node">
<title>2</title>
<ellipse fill="none" stroke="black" cx="82.57" cy="-126" rx="43.16" ry="18"/>
<text xml:space="preserve" text-anchor="middle" x="82.57" y="-120.95" font-family="Times,serif" font-size="14.00">nanoplot</text>
</g>
<!-- 3 -->
<g id="node4" class="node">
<title>3</title>
<ellipse fill="none" stroke="black" cx="1349.32" cy="-195" rx="32.93" ry="18"/>
<text xml:space="preserve" text-anchor="middle" x="1349.32" y="-189.95" font-family="Times,serif" font-size="14.00">fastqc</text>
</g>
<!-- 18 -->
<g id="node19" class="node">
<title>18</title>
<ellipse fill="none" stroke="black" cx="1579.12" cy="-303" rx="39.58" ry="18"/>
<text xml:space="preserve" text-anchor="middle" x="1579.12" y="-297.95" font-family="Times,serif" font-size="14.00">multiqc</text>
</g>
<!-- 3&#45;&gt;18 -->
<g id="edge19" class="edge">
<title>3&#45;&gt;18</title>
<path fill="none" stroke="black" d="M1380.19,-201.46C1398.98,-206.04 1423.51,-212.97 1444.17,-222 1481.49,-238.31 1521.02,-263.28 1547.38,-281.18"/>
<polygon fill="black" stroke="black" points="1545.34,-284.03 1555.56,-286.81 1549.3,-278.26 1545.34,-284.03"/>
</g>
<!-- 4 -->
<g id="node5" class="node">
<title>4</title>
<ellipse fill="none" stroke="black" cx="274.5" cy="-180" rx="73.36" ry="18"/>
<text xml:space="preserve" text-anchor="middle" x="274.5" y="-174.95" font-family="Times,serif" font-size="14.00">get_chrom_sizes</text>
</g>
<!-- 7 -->
<g id="node8" class="node">
<title>7</title>
<ellipse fill="none" stroke="black" cx="458.24" cy="-236" rx="74.38" ry="18"/>
<text xml:space="preserve" text-anchor="middle" x="458.24" y="-230.95" font-family="Times,serif" font-size="14.00">minimap2_index</text>
</g>
<!-- 4&#45;&gt;7 -->
<g id="edge2" class="edge">
<title>4&#45;&gt;7</title>
<path fill="none" stroke="black" d="M321.36,-194.13C345.27,-201.5 374.74,-210.58 400.12,-218.4"/>
<polygon fill="black" stroke="black" points="399.05,-221.73 409.64,-221.33 401.11,-215.04 399.05,-221.73"/>
</g>
<!-- 16 -->
<g id="node17" class="node">
<title>16</title>
<ellipse fill="none" stroke="black" cx="1579.12" cy="-118" rx="98.95" ry="18"/>
<text xml:space="preserve" text-anchor="middle" x="1579.12" y="-112.95" font-family="Times,serif" font-size="14.00">ucsc_bedgraphtobigwig</text>
</g>
<!-- 4&#45;&gt;16 -->
<g id="edge17" class="edge">
<title>4&#45;&gt;16</title>
<path fill="none" stroke="black" d="M314.71,-164.61C380.74,-140.11 518.79,-95 639.96,-95 639.96,-95 639.96,-95 1150.2,-95 1262.34,-95 1390.78,-102.97 1477.44,-109.53"/>
<polygon fill="black" stroke="black" points="1477.11,-113.02 1487.35,-110.29 1477.65,-106.04 1477.11,-113.02"/>
</g>
<!-- 5 -->
<g id="node6" class="node">
<title>5</title>
<ellipse fill="none" stroke="black" cx="82.57" cy="-180" rx="67.73" ry="18"/>
<text xml:space="preserve" text-anchor="middle" x="82.57" y="-174.95" font-family="Times,serif" font-size="14.00">samtools_faidx</text>
</g>
<!-- 5&#45;&gt;4 -->
<g id="edge1" class="edge">
<title>5&#45;&gt;4</title>
<path fill="none" stroke="black" d="M150.53,-180C163.09,-180 176.36,-180 189.36,-180"/>
<polygon fill="black" stroke="black" points="189.18,-183.5 199.18,-180 189.18,-176.5 189.18,-183.5"/>
</g>
<!-- 6 -->
<g id="node7" class="node">
<title>6</title>
<ellipse fill="none" stroke="black" cx="458.24" cy="-182" rx="39.07" ry="18"/>
<text xml:space="preserve" text-anchor="middle" x="458.24" y="-176.95" font-family="Times,serif" font-size="14.00">gtf2bed</text>
</g>
<!-- 8 -->
<g id="node9" class="node">
<title>8</title>
<ellipse fill="none" stroke="black" cx="640.96" cy="-236" rx="72.34" ry="18"/>
<text xml:space="preserve" text-anchor="middle" x="640.96" y="-230.95" font-family="Times,serif" font-size="14.00">minimap2_align</text>
</g>
<!-- 6&#45;&gt;8 -->
<g id="edge4" class="edge">
<title>6&#45;&gt;8</title>
<path fill="none" stroke="black" d="M491.55,-191.65C516.78,-199.19 552.48,-209.86 582.54,-218.84"/>
<polygon fill="black" stroke="black" points="581.3,-222.12 591.88,-221.63 583.3,-215.42 581.3,-222.12"/>
</g>
<!-- 7&#45;&gt;8 -->
<g id="edge3" class="edge">
<title>7&#45;&gt;8</title>
<path fill="none" stroke="black" d="M533.01,-236C540.81,-236 548.79,-236 556.69,-236"/>
<polygon fill="black" stroke="black" points="556.67,-239.5 566.67,-236 556.67,-232.5 556.67,-239.5"/>
</g>
<!-- 9 -->
<g id="node10" class="node">
<title>9</title>
<ellipse fill="none" stroke="black" cx="816" cy="-271" rx="66.71" ry="18"/>
<text xml:space="preserve" text-anchor="middle" x="816" y="-265.95" font-family="Times,serif" font-size="14.00">samtools_view</text>
</g>
<!-- 8&#45;&gt;9 -->
<g id="edge5" class="edge">
<title>8&#45;&gt;9</title>
<path fill="none" stroke="black" d="M698.14,-247.36C714.9,-250.75 733.4,-254.49 750.64,-257.98"/>
<polygon fill="black" stroke="black" points="749.77,-261.38 760.27,-259.93 751.16,-254.52 749.77,-261.38"/>
</g>
<!-- 10 -->
<g id="node11" class="node">
<title>10</title>
<ellipse fill="none" stroke="black" cx="981.32" cy="-288" rx="62.61" ry="18"/>
<text xml:space="preserve" text-anchor="middle" x="981.32" y="-282.95" font-family="Times,serif" font-size="14.00">samtools_sort</text>
</g>
<!-- 9&#45;&gt;10 -->
<g id="edge6" class="edge">
<title>9&#45;&gt;10</title>
<path fill="none" stroke="black" d="M878.75,-277.43C889.16,-278.51 900.04,-279.64 910.64,-280.75"/>
<polygon fill="black" stroke="black" points="910.18,-284.22 920.49,-281.77 910.91,-277.26 910.18,-284.22"/>
</g>
<!-- 11 -->
<g id="node12" class="node">
<title>11</title>
<ellipse fill="none" stroke="black" cx="1149.2" cy="-311" rx="69.26" ry="18"/>
<text xml:space="preserve" text-anchor="middle" x="1149.2" y="-305.95" font-family="Times,serif" font-size="14.00">samtools_index</text>
</g>
<!-- 10&#45;&gt;11 -->
<g id="edge7" class="edge">
<title>10&#45;&gt;11</title>
<path fill="none" stroke="black" d="M1038.48,-295.79C1050.5,-297.45 1063.35,-299.24 1075.88,-300.97"/>
<polygon fill="black" stroke="black" points="1075.38,-304.44 1085.76,-302.34 1076.34,-297.5 1075.38,-304.44"/>
</g>
<!-- 12 -->
<g id="node13" class="node">
<title>12</title>
<ellipse fill="none" stroke="black" cx="1349.32" cy="-303" rx="65.17" ry="18"/>
<text xml:space="preserve" text-anchor="middle" x="1349.32" y="-297.95" font-family="Times,serif" font-size="14.00">samtools_stats</text>
</g>
<!-- 10&#45;&gt;12 -->
<g id="edge8" class="edge">
<title>10&#45;&gt;12</title>
<path fill="none" stroke="black" d="M1043.49,-285.11C1055.57,-284.65 1068.15,-284.24 1079.93,-284 1141.49,-282.74 1157.06,-279.53 1218.46,-284 1239.46,-285.53 1262.21,-288.43 1282.72,-291.51"/>
<polygon fill="black" stroke="black" points="1281.94,-294.93 1292.36,-293 1283.01,-288.01 1281.94,-294.93"/>
</g>
<!-- 13 -->
<g id="node14" class="node">
<title>13</title>
<ellipse fill="none" stroke="black" cx="1349.32" cy="-411" rx="76.94" ry="18"/>
<text xml:space="preserve" text-anchor="middle" x="1349.32" y="-405.95" font-family="Times,serif" font-size="14.00">samtools_idxstats</text>
</g>
<!-- 10&#45;&gt;13 -->
<g id="edge10" class="edge">
<title>10&#45;&gt;13</title>
<path fill="none" stroke="black" d="M1000.07,-305.63C1018.45,-322.81 1048.79,-348.29 1079.93,-362 1137.91,-387.52 1208.56,-399.75 1262.81,-405.61"/>
<polygon fill="black" stroke="black" points="1262.32,-409.08 1272.63,-406.61 1263.03,-402.11 1262.32,-409.08"/>
</g>
<!-- 14 -->
<g id="node15" class="node">
<title>14</title>
<ellipse fill="none" stroke="black" cx="1349.32" cy="-357" rx="75.92" ry="18"/>
<text xml:space="preserve" text-anchor="middle" x="1349.32" y="-351.95" font-family="Times,serif" font-size="14.00">samtools_flagstat</text>
</g>
<!-- 10&#45;&gt;14 -->
<g id="edge12" class="edge">
<title>10&#45;&gt;14</title>
<path fill="none" stroke="black" d="M1007.66,-304.59C1026.7,-316.15 1053.89,-330.74 1079.93,-338 1139.35,-354.57 1208.89,-359.1 1262.29,-359.61"/>
<polygon fill="black" stroke="black" points="1262.24,-363.11 1272.26,-359.65 1262.27,-356.11 1262.24,-363.11"/>
</g>
<!-- 15 -->
<g id="node16" class="node">
<title>15</title>
<ellipse fill="none" stroke="black" cx="1349.32" cy="-141" rx="89.74" ry="18"/>
<text xml:space="preserve" text-anchor="middle" x="1349.32" y="-135.95" font-family="Times,serif" font-size="14.00">bedtools_genomecov</text>
</g>
<!-- 10&#45;&gt;15 -->
<g id="edge14" class="edge">
<title>10&#45;&gt;15</title>
<path fill="none" stroke="black" d="M1014,-272.35C1064.18,-247.94 1165.38,-200.29 1254.46,-168 1263.4,-164.76 1272.92,-161.65 1282.35,-158.76"/>
<polygon fill="black" stroke="black" points="1283.3,-162.12 1291.87,-155.91 1281.29,-155.42 1283.3,-162.12"/>
</g>
<!-- 11&#45;&gt;12 -->
<g id="edge9" class="edge">
<title>11&#45;&gt;12</title>
<path fill="none" stroke="black" d="M1218.1,-308.26C1235.83,-307.54 1255.04,-306.77 1273.12,-306.04"/>
<polygon fill="black" stroke="black" points="1273.14,-309.54 1282.99,-305.64 1272.86,-302.54 1273.14,-309.54"/>
</g>
<!-- 11&#45;&gt;13 -->
<g id="edge11" class="edge">
<title>11&#45;&gt;13</title>
<path fill="none" stroke="black" d="M1170.49,-328.29C1190.62,-344.68 1222.96,-368.96 1254.46,-384 1263.24,-388.19 1272.81,-391.86 1282.36,-395.03"/>
<polygon fill="black" stroke="black" points="1281.06,-398.3 1291.65,-397.95 1283.16,-391.62 1281.06,-398.3"/>
</g>
<!-- 11&#45;&gt;14 -->
<g id="edge13" class="edge">
<title>11&#45;&gt;14</title>
<path fill="none" stroke="black" d="M1201.99,-323.03C1226.67,-328.76 1256.46,-335.67 1282.7,-341.77"/>
<polygon fill="black" stroke="black" points="1281.7,-345.13 1292.23,-343.98 1283.28,-338.31 1281.7,-345.13"/>
</g>
<!-- 11&#45;&gt;15 -->
<g id="edge15" class="edge">
<title>11&#45;&gt;15</title>
<path fill="none" stroke="black" d="M1158.34,-293.1C1173.09,-262.71 1207.13,-201.11 1254.46,-168 1260.21,-163.98 1266.54,-160.56 1273.13,-157.64"/>
<polygon fill="black" stroke="black" points="1274.24,-160.97 1282.23,-154.02 1271.65,-154.46 1274.24,-160.97"/>
</g>
<!-- 12&#45;&gt;18 -->
<g id="edge20" class="edge">
<title>12&#45;&gt;18</title>
<path fill="none" stroke="black" d="M1414.68,-303C1450.58,-303 1494.63,-303 1527.95,-303"/>
<polygon fill="black" stroke="black" points="1527.74,-306.5 1537.74,-303 1527.74,-299.5 1527.74,-306.5"/>
</g>
<!-- 13&#45;&gt;18 -->
<g id="edge22" class="edge">
<title>13&#45;&gt;18</title>
<path fill="none" stroke="black" d="M1404.29,-398.11C1417.57,-394.22 1431.59,-389.5 1444.17,-384 1481.49,-367.69 1521.02,-342.72 1547.38,-324.82"/>
<polygon fill="black" stroke="black" points="1549.3,-327.74 1555.56,-319.19 1545.34,-321.97 1549.3,-327.74"/>
</g>
<!-- 14&#45;&gt;18 -->
<g id="edge21" class="edge">
<title>14&#45;&gt;18</title>
<path fill="none" stroke="black" d="M1404.3,-344.2C1443.29,-334.96 1495.38,-322.61 1532.34,-313.85"/>
<polygon fill="black" stroke="black" points="1532.9,-317.32 1541.82,-311.61 1531.28,-310.51 1532.9,-317.32"/>
</g>
<!-- 15&#45;&gt;16 -->
<g id="edge16" class="edge">
<title>15&#45;&gt;16</title>
<path fill="none" stroke="black" d="M1430.31,-132.92C1446.46,-131.29 1463.6,-129.56 1480.28,-127.88"/>
<polygon fill="black" stroke="black" points="1480.63,-131.36 1490.23,-126.87 1479.93,-124.4 1480.63,-131.36"/>
</g>
<!-- 17 -->
<g id="node18" class="node">
<title>17</title>
<ellipse fill="none" stroke="black" cx="1349.32" cy="-249" rx="94.86" ry="18"/>
<text xml:space="preserve" text-anchor="middle" x="1349.32" y="-243.95" font-family="Times,serif" font-size="14.00">dumpsoftwareversions</text>
</g>
<!-- 17&#45;&gt;18 -->
<g id="edge18" class="edge">
<title>17&#45;&gt;18</title>
<path fill="none" stroke="black" d="M1410.17,-263.19C1448.47,-272.27 1497.39,-283.86 1532.54,-292.2"/>
<polygon fill="black" stroke="black" points="1531.43,-295.53 1541.96,-294.43 1533.04,-288.72 1531.43,-295.53"/>
</g>
</g>
</svg>
